#!OML:ASF X:\für Bonn\!DataBase\2005_08_11_Bastian_Final\c3d\Bastian.ASF
:FULLY-SPECIFIED
:DEGREES
222
root -21.7109 17.6151 0.193749 128.949 -79.4515 -132.805
lowerback 4.05225 -0.917088 1.90835
upperback 4.03846 -1.27254 0.112378
thorax 1.84058 -0.633198 -0.924419
lowerneck -4.771 -3.91643 -0.78588
upperneck -12.5164 -4.83617 11.7491
head -2.91252 -2.97347 4.14001
rclavicle -2.28602e-015 -7.95139e-016
rhumerus 45.9414 46.9907 -9.62435
rradius 113.117
rwrist 11.1045
rhand -17.846 3.19646
rfingers 7.12502
rthumb 8.41898 -26.6157
lclavicle -2.28602e-015 -7.95139e-016
lhumerus -26.7764 -7.22769 84.0739
lradius 21.1076
lwrist 16.6466
lhand -12.3953 -8.04723
lfingers 7.12502
lthumb 13.6761 21.4834
rfemur 3.25857 6.18361 23.1855
rtibia 37.045
rfoot -11.3992 4.18154
rtoes -23.1612
lfemur -7.49465 7.3912 -13.2313
ltibia 28.2808
lfoot -8.62722 -8.24281
ltoes -0.145223
223
root -21.7032 17.6138 0.18348 128.615 -79.5908 -132.504
lowerback 4.01762 -0.980477 1.70316
upperback 4.07309 -1.36506 0.184315
thorax 1.89878 -0.685231 -0.734622
lowerneck -4.53664 -3.77133 -0.926226
upperneck -12.6824 -4.62034 11.6751
head -3.02738 -2.86849 4.15742
rclavicle 7.7526e-015 1.59028e-014
rhumerus 45.5994 49.6968 -9.1194
rradius 112.643
rwrist 11.4442
rhand -17.9585 3.50552
rfingers 7.12502
rthumb 8.31037 -26.311
lclavicle 7.7526e-015 1.59028e-014
lhumerus -26.5968 -7.16263 84.118
lradius 21.2833
lwrist 16.7273
lhand -12.3807 -8.12802
lfingers 7.12502
lthumb 13.6902 21.4017
rfemur 3.06305 6.24893 23.1731
rtibia 37.3204
rfoot -11.5403 4.19908
rtoes -22.8529
lfemur -7.51064 7.46765 -13.2499
ltibia 28.2911
lfoot -8.57164 -8.48283
ltoes -0.173507
224
root -21.6949 17.6129 0.172248 128.215 -79.7419 -132.118
lowerback 3.99282 -1.04233 1.49653
upperback 4.08157 -1.454 0.25682
thorax 1.92555 -0.735658 -0.543171
lowerneck -4.36518 -3.6327 -1.03423
upperneck -12.7925 -4.42219 11.5633
head -3.11178 -2.76803 4.14959
rclavicle -4.13472e-014 8.74653e-015
rhumerus 44.9586 52.4453 -8.98323
rradius 111.961
rwrist 11.8467
rhand -18.0537 3.90133
rfingers 7.12502
rthumb 8.21855 -25.9188
lclavicle -4.13472e-014 8.74653e-015
lhumerus -26.5186 -6.98661 84.1415
lradius 21.6228
lwrist 16.696
lhand -12.3383 -8.04811
lfingers 7.12502
lthumb 13.7309 21.4788
rfemur 2.86146 6.33926 23.1631
rtibia 37.5546
rfoot -11.7018 4.22367
rtoes -22.334
lfemur -7.56558 7.56864 -13.2651
ltibia 28.3136
lfoot -8.4841 -8.76204
ltoes -0.180751
225
root -21.6855 17.6118 0.160934 127.681 -79.9089 -131.62
lowerback 4.00681 -1.08771 1.33351
upperback 4.09295 -1.51888 0.28779
thorax 1.93284 -0.772652 -0.418568
lowerneck -4.32358 -3.5053 -1.02138
upperneck -12.8504 -4.25363 11.409
head -3.15493 -2.68189 4.09614
rclavicle -3.33958e-014 5.56597e-015
rhumerus 43.8549 55.1953 -9.41509
rradius 111.091
rwrist 12.2275
rhand -18.0921 4.3106
rfingers 7.12502
rthumb 8.18148 -25.511
lclavicle -3.33958e-014 5.56597e-015
lhumerus -26.4548 -6.80041 84.0869
lradius 22.045
lwrist 16.5459
lhand -12.2005 -7.91883
lfingers 7.12502
lthumb 13.8638 21.5991
rfemur 2.69301 6.45185 23.1619
rtibia 37.7518
rfoot -11.9041 4.24113
rtoes -21.6849
lfemur -7.60271 7.56535 -13.2856
ltibia 28.3418
lfoot -8.42166 -8.96795
ltoes -0.143154
226
root -21.6756 17.6103 0.148437 127.129 -80.1026 -131.095
lowerback 4.01554 -1.12406 1.12929
upperback 4.10544 -1.57322 0.342877
thorax 1.94653 -0.805774 -0.246597
lowerneck -4.27596 -3.3868 -1.10882
upperneck -12.9362 -4.09104 11.2906
head -3.20588 -2.59622 4.07579
rclavicle -6.65929e-015 -2.06736e-014
rhumerus 42.4233 57.9087 -10.2103
rradius 110.095
rwrist 12.5803
rhand -18.0703 4.58056
rfingers 7.12502
rthumb 8.20252 -25.2402
lclavicle -6.65929e-015 -2.06736e-014
lhumerus -26.3556 -6.70561 84.127
lradius 22.4579
lwrist 16.5293
lhand -12.1031 -7.74208
lfingers 7.12502
lthumb 13.9576 21.7694
rfemur 2.52566 6.57196 23.1357
rtibia 37.9174
rfoot -12.1428 4.28282
rtoes -20.9139
lfemur -7.6591 7.61266 -13.3242
ltibia 28.3711
lfoot -8.34198 -9.24006
ltoes -0.18766
227
root -21.6655 17.6093 0.136273 126.414 -80.2913 -130.408
lowerback 4.05544 -1.14115 0.997036
upperback 4.10041 -1.59857 0.36341
thorax 1.92269 -0.822114 -0.150001
lowerneck -4.2233 -3.29176 -1.15365
upperneck -13.0141 -3.96076 11.1833
head -3.25322 -2.52867 4.051
rclavicle -2.38542e-014 -1.59028e-014
rhumerus 40.3301 60.5709 -11.7696
rradius 108.906
rwrist 12.9821
rhand -18.0262 4.76188
rfingers 7.12502
rthumb 8.24507 -25.0572
lclavicle -2.38542e-014 -1.59028e-014
lhumerus -26.2579 -6.78288 84.1497
lradius 22.8626
lwrist 16.596
lhand -11.9937 -7.56677
lfingers 7.12502
lthumb 14.0631 21.9374
rfemur 2.36245 6.69062 23.1311
rtibia 38.0525
rfoot -12.4158 4.33963
rtoes -20.3221
lfemur -7.71079 7.59074 -13.3525
ltibia 28.3938
lfoot -8.25929 -9.45625
ltoes -0.2046
228
root -21.6539 17.6088 0.123299 125.6 -80.5172 -129.612
lowerback 4.09979 -1.15747 0.834764
upperback 4.09784 -1.62388 0.389924
thorax 1.90003 -0.839245 -0.0303924
lowerneck -4.19611 -3.19374 -1.23099
upperneck -13.0921 -3.82806 11.0549
head -3.29577 -2.4567 4.02365
rclavicle -1.73937e-014 -1.19271e-014
rhumerus 37.5985 63.1077 -14.0121
rradius 107.607
rwrist 13.3578
rhand -17.9737 4.78941
rfingers 7.12502
rthumb 8.29571 -25.0277
lclavicle -1.73937e-014 -1.19271e-014
lhumerus -26.1647 -6.89677 84.2189
lradius 23.2939
lwrist 16.6908
lhand -11.9249 -7.3836
lfingers 7.12502
lthumb 14.1294 22.116
rfemur 2.18973 6.81236 23.1061
rtibia 38.1552
rfoot -12.7065 4.39697
rtoes -19.8352
lfemur -7.78527 7.63572 -13.3957
ltibia 28.4173
lfoot -8.16434 -9.75171
ltoes -0.347093
229
root -21.6424 17.6082 0.11007 124.662 -80.7482 -128.708
lowerback 4.16475 -1.15298 0.725133
upperback 4.09571 -1.61969 0.382889
thorax 1.86425 -0.839857 0.0251773
lowerneck -4.04569 -3.12418 -1.39635
upperneck -13.5551 -3.65417 11.3224
head -3.09073 -2.41421 3.74263
rclavicle 2.05742e-014 -1.66979e-014
rhumerus 33.8202 65.4944 -17.4027
rradius 106.142
rwrist 13.79
rhand -17.9884 4.75179
rfingers 7.12502
rthumb 8.28153 -25.0659
lclavicle 2.05742e-014 -1.66979e-014
lhumerus -26.0765 -7.0732 84.2723
lradius 23.734
lwrist 16.767
lhand -11.9182 -7.27963
lfingers 7.12502
lthumb 14.1358 22.2195
rfemur 2.04161 6.98484 23.0956
rtibia 38.2276
rfoot -13.0121 4.43667
rtoes -19.2488
lfemur -7.8402 7.61011 -13.4444
ltibia 28.4293
lfoot -8.06465 -10.01
ltoes -0.376442
230
root -21.6299 17.6073 0.0969112 123.45 -80.975 -127.525
lowerback 4.24034 -1.14792 0.632767
upperback 4.09305 -1.61473 0.395364
thorax 1.82213 -0.839993 0.0913321
lowerneck -4.01905 -3.05592 -1.53295
upperneck -13.6531 -3.55651 11.2459
head -3.12957 -2.35933 3.74415
rclavicle 2.9122e-014 -1.90833e-014
rhumerus 28.8539 67.6085 -22.0735
rradius 104.564
rwrist 14.3266
rhand -17.9775 4.57234
rfingers 7.12502
rthumb 8.29202 -25.2449
lclavicle 2.9122e-014 -1.90833e-014
lhumerus -25.9947 -7.33392 84.3786
lradius 24.1697
lwrist 16.9282
lhand -11.9527 -7.21728
lfingers 7.12502
lthumb 14.1026 22.2842
rfemur 1.90829 7.2229 23.1376
rtibia 38.2671
rfoot -13.3191 4.41298
rtoes -18.808
lfemur -7.90362 7.51836 -13.4751
ltibia 28.4351
lfoot -7.97446 -10.2129
ltoes -0.455198
231
root -21.6159 17.6074 0.083695 122.142 -81.231 -126.241
lowerback 4.344 -1.1402 0.53816
upperback 4.07431 -1.60534 0.390638
thorax 1.74732 -0.837536 0.141887
lowerneck -3.95263 -2.98995 -1.67318
upperneck -13.7915 -3.45887 11.1725
head -3.18697 -2.30684 3.74891
rclavicle -1.91827e-014 7.95139e-015
rhumerus 22.3934 69.3621 -28.381
rradius 102.812
rwrist 14.9264
rhand -17.9779 4.40961
rfingers 7.12502
rthumb 8.29162 -25.4077
lclavicle -1.91827e-014 7.95139e-015
lhumerus -25.9347 -7.58176 84.4815
lradius 24.6207
lwrist 17.1269
lhand -12.0355 -7.21503
lfingers 7.12502
lthumb 14.0228 22.292
rfemur 1.77053 7.48822 23.1562
rtibia 38.272
rfoot -13.5905 4.3841
rtoes -18.0485
lfemur -7.98875 7.47075 -13.53
ltibia 28.4371
lfoot -7.8447 -10.4783
ltoes -0.537683
232
root -21.6013 17.607 0.0707233 120.663 -81.5205 -124.779
lowerback 4.44481 -1.11886 0.450865
upperback 4.05201 -1.57734 0.364586
thorax 1.66963 -0.825094 0.165914
lowerneck -3.8913 -2.9406 -1.81044
upperneck -13.9114 -3.38477 11.098
head -3.23667 -2.26465 3.75231
rclavicle -6.95746e-016 -5.56597e-015
rhumerus 14.4474 70.5882 -36.2092
rradius 100.955
rwrist 15.5562
rhand -18.0402 4.2157
rfingers 7.12502
rthumb 8.23157 -25.6039
lclavicle -6.95746e-016 -5.56597e-015
lhumerus -25.9085 -7.98781 84.6092
lradius 25.1219
lwrist 17.3885
lhand -12.1532 -7.23301
lfingers 7.12502
lthumb 13.9093 22.2818
rfemur 1.63694 7.7376 23.141
rtibia 38.2455
rfoot -13.8737 4.37755
rtoes -17.2828
lfemur -8.0835 7.37937 -13.6236
ltibia 28.4354
lfoot -7.73896 -10.7011
ltoes -0.85538
233
root -21.5858 17.607 0.0575687 118.818 -81.774 -122.958
lowerback 4.55679 -1.10768 0.407749
upperback 4.04902 -1.56293 0.353581
thorax 1.60492 -0.818956 0.180965
lowerneck -3.89784 -2.8722 -1.95257
upperneck -14.0095 -3.28942 11.0144
head -3.27028 -2.20912 3.7518
rclavicle 2.98177e-015 7.15625e-015
rhumerus 5.54982 71.1625 -45.0818
rradius 98.9555
rwrist 16.2494
rhand -18.2138 4.02715
rfingers 7.12502
rthumb 8.06399 -25.799
lclavicle 2.98177e-015 7.15625e-015
lhumerus -25.8228 -8.23128 84.7085
lradius 25.5526
lwrist 17.5489
lhand -12.2852 -7.321
lfingers 7.12502
lthumb 13.7821 22.2025
rfemur 1.52056 7.99933 23.1739
rtibia 38.1872
rfoot -14.1542 4.40001
rtoes -16.8102
lfemur -8.16994 7.20988 -13.6697
ltibia 28.4304
lfoot -7.63774 -10.8816
ltoes -1.19411
